<svg xmlns="http://www.w3.org/2000/svg" width="216" height="64" viewBox="0 0 216 64" role="img">
  <title>Tango</title>
  <rect x="36" y="14" width="176" height="42" rx="8" fill="#2f7f78" />
  <rect x="32" y="8" width="180" height="44" rx="8" fill="#f8fafc" />
  <g fill="none" stroke="#202936" stroke-width="4.5" stroke-linecap="round" stroke-linejoin="round">
    <path d="M97 25v19 M97 34c0-6-4-10-9-10s-10 4-10 10 4 10 10 10 9-4 9-10" />
    <path d="M112 44V25m0 8c2-6 6-9 11-9 6 0 9 4 9 10v10" />
    <path d="M165 25v17c0 8-4 12-11 12-5 0-9-2-11-5 M165 34c0-6-4-10-10-10s-10 4-10 10 4 10 10 10 10-4 10-10" />
    <path d="M189 24c-7 0-11 4-11 10s4 10 11 10 11-4 11-10-4-10-11-10z" />
  </g>
  <g data-logo-part="mark">
    <rect x="3" y="3" width="58" height="58" rx="17" fill="#4f63b8" />
    <rect x="18" y="14" width="34" height="27" rx="6" fill="#2f7f78" />
    <rect x="12" y="21" width="36" height="28" rx="6" fill="#f8fafc" />
    <path d="M20 28h20v4.5h-7.5V44h-5V32.5H20z" fill="#4f63b8" />
  </g>
</svg>
